ffmpeg started on 2025-05-28 at 21:24:07
Report written to "D:\Convert\FFMetrics\reports\ssim_report-6.txt"
Log level: 32
Command line:
ffmpeg -hide_banner -nostdin -i "G:\\\xc0\xed\xe8\xec\xe5\\\xce\xed\xe3\xee\xe8\xed\xe3\xe8\\!_36_\xce\xf1\xe5\xed\xfc_2024\\JamClub\\\xcb\xfe\xe1\xee\xe2\xfc \xcc\xf3\xf0\xe0\xe8\\JamClub_Murai_no_Koi_03_1080p_HEVC.mkv" -i "G:\\\xc0\xed\xe8\xec\xe5\\\xce\xed\xe3\xee\xe8\xed\xe3\xe8\\!_36_\xce\xf1\xe5\xed\xfc_2024\\JamClub\\\xcb\xfe\xe1\xee\xe2\xfc \xcc\xf3\xf0\xe0\xe8\\JamClub_Murai_no_Koi_03_1080p.mp4" -lavfi "[0:v]settb=AVTB,setpts=PTS-STARTPTS,format=pix_fmts=yuv420p10,fps=24000/1001,scale=1920:1080:flags=bicubic[main];[1:v]settb=AVTB,setpts=PTS-STARTPTS,format=pix_fmts=yuv420p,fps=24000/1001,scale=1920:1080:flags=bicubic[ref];[main][ref]ssim=eof_action=endall:stats_file='D\\:/Convert/FFMetrics/logs/ssim_logfile-6.txt'" -f null -
Input #0, matroska,webm, from 'G:\Аниме\Онгоинги\!_36_Осень_2024\JamClub\Любовь Мураи\JamClub_Murai_no_Koi_03_1080p_HEVC.mkv':
  Metadata:
    COMPATIBLE_BRANDS: isomiso2avc1mp41
    MAJOR_BRAND     : isom
    MINOR_VERSION   : 512
    ENCODER         : Lavf61.7.100
  Duration: 00:24:04.21, start: -0.021000, bitrate: 1579 kb/s
  Stream #0:0: Video: hevc (Main 10), yuv420p10le(tv, bt709, progressive), 1920x1080 [SAR 1:1 DAR 16:9], 23.98 fps, 23.98 tbr, 1k tbn (default)
      Metadata:
        HANDLER_NAME    : VideoHandler
        VENDOR_ID       : [0][0][0][0]
        ENCODER         : Lavc61.19.100 libx265
        BPS             : 1381810
        DURATION        : 00:24:04.108708333
        NUMBER_OF_FRAMES: 34624
        NUMBER_OF_BYTES : 249435489
        _STATISTICS_WRITING_APP: mkvpropedit v66.0.0 ('Josie') 64-bit
        _STATISTICS_WRITING_DATE_UTC: 2025-05-28 12:08:18
        _STATISTICS_TAGS: BPS DURATION NUMBER_OF_FRAMES NUMBER_OF_BYTES
  Stream #0:1(eng): Audio: aac (LC), 48000 Hz, stereo, fltp (default)
      Metadata:
        HANDLER_NAME    : SoundHandler
        VENDOR_ID       : [0][0][0][0]
        ENCODER         : Lavc61.19.100 aac
        BPS             : 194027
        DURATION        : 00:24:04.184000000
        NUMBER_OF_FRAMES: 67697
        NUMBER_OF_BYTES : 35026475
        _STATISTICS_WRITING_APP: mkvpropedit v66.0.0 ('Josie') 64-bit
        _STATISTICS_WRITING_DATE_UTC: 2025-05-28 12:08:18
        _STATISTICS_TAGS: BPS DURATION NUMBER_OF_FRAMES NUMBER_OF_BYTES
Input #1, mov,mp4,m4a,3gp,3g2,mj2, from 'G:\Аниме\Онгоинги\!_36_Осень_2024\JamClub\Любовь Мураи\JamClub_Murai_no_Koi_03_1080p.mp4':
  Metadata:
    major_brand     : isom
    minor_version   : 512
    compatible_brands: isomiso2avc1mp41
    encoder         : Lavf60.16.100
  Duration: 00:24:04.18, start: 0.000000, bitrate: 4579 kb/s
  Stream #1:0[0x1](und): Video: h264 (High) (avc1 / 0x31637661), yuv420p(tv, bt709, progressive), 1920x1080 [SAR 1:1 DAR 16:9], 4380 kb/s, 23.98 fps, 23.98 tbr, 90k tbn (default)
      Metadata:
        handler_name    : VideoHandler
        vendor_id       : [0][0][0][0]
  Stream #1:1[0x2](eng): Audio: aac (LC) (mp4a / 0x6134706D), 48000 Hz, stereo, fltp, 191 kb/s (default)
      Metadata:
        handler_name    : SoundHandler
        vendor_id       : [0][0][0][0]
Stream mapping:
  Stream #0:0 (hevc) -> settb:default
  Stream #1:0 (h264) -> settb:default
  ssim:default -> Stream #0:0 (wrapped_avframe)
  Stream #0:1 -> #0:1 (aac (native) -> pcm_s16le (native))
Output #0, null, to 'pipe:':
  Metadata:
    COMPATIBLE_BRANDS: isomiso2avc1mp41
    MAJOR_BRAND     : isom
    MINOR_VERSION   : 512
    encoder         : Lavf61.7.100
  Stream #0:0: Video: wrapped_avframe, yuv420p10le(tv, bt709, progressive), 1920x1080 [SAR 1:1 DAR 16:9], q=2-31, 200 kb/s, 23.98 fps, 23.98 tbn
      Metadata:
        encoder         : Lavc61.19.100 wrapped_avframe
  Stream #0:1(eng): Audio: pcm_s16le, 48000 Hz, stereo, s16, 1536 kb/s (default)
      Metadata:
        HANDLER_NAME    : SoundHandler
        VENDOR_ID       : [0][0][0][0]
        _STATISTICS_TAGS: BPS DURATION NUMBER_OF_FRAMES NUMBER_OF_BYTES
        BPS             : 194027
        DURATION        : 00:24:04.184000000
        NUMBER_OF_FRAMES: 67697
        NUMBER_OF_BYTES : 35026475
        _STATISTICS_WRITING_APP: mkvpropedit v66.0.0 ('Josie') 64-bit
        _STATISTICS_WRITING_DATE_UTC: 2025-05-28 12:08:18
        encoder         : Lavc61.19.100 pcm_s16le
frame=  119 fps=0.0 q=-0.0 size=N/A time=00:00:04.96 bitrate=N/A speed=9.63x    frame=  286 fps=276 q=-0.0 size=N/A time=00:00:11.92 bitrate=N/A speed=11.5x    frame=  490 fps=318 q=-0.0 size=N/A time=00:00:20.43 bitrate=N/A speed=13.2x    frame=  673 fps=325 q=-0.0 size=N/A time=00:00:28.06 bitrate=N/A speed=13.6x    frame=  839 fps=324 q=-0.0 size=N/A time=00:00:34.99 bitrate=N/A speed=13.5x    frame=  984 fps=318 q=-0.0 size=N/A time=00:00:41.04 bitrate=N/A speed=13.3x    frame= 1145 fps=318 q=-0.0 size=N/A time=00:00:47.75 bitrate=N/A speed=13.2x    frame= 1357 fps=328 q=-0.0 size=N/A time=00:00:56.59 bitrate=N/A speed=13.7x    frame= 1497 fps=323 q=-0.0 size=N/A time=00:01:02.43 bitrate=N/A speed=13.5x    frame= 1716 fps=332 q=-0.0 size=N/A time=00:01:11.57 bitrate=N/A speed=13.9x    frame= 1886 fps=333 q=-0.0 size=N/A time=00:01:18.66 bitrate=N/A speed=13.9x    frame= 2029 fps=328 q=-0.0 size=N/A time=00:01:24.62 bitrate=N/A speed=13.7x    frame= 2181 fps=326 q=-0.0 size=N/A time=00:01:30.96 bitrate=N/A speed=13.6x    frame= 2373 fps=329 q=-0.0 size=N/A time=00:01:38.97 bitrate=N/A speed=13.7x    frame= 2558 fps=331 q=-0.0 size=N/A time=00:01:46.68 bitrate=N/A speed=13.8x    frame= 2805 fps=340 q=-0.0 size=N/A time=00:01:56.99 bitrate=N/A speed=14.2x    frame= 3048 fps=348 q=-0.0 size=N/A time=00:02:07.12 bitrate=N/A speed=14.5x    frame= 3303 fps=356 q=-0.0 size=N/A time=00:02:17.76 bitrate=N/A speed=14.8x    frame= 3515 fps=359 q=-0.0 size=N/A time=00:02:26.60 bitrate=N/A speed=  15x    frame= 3713 fps=360 q=-0.0 size=N/A time=00:02:34.86 bitrate=N/A speed=  15x    frame= 3923 fps=362 q=-0.0 size=N/A time=00:02:43.62 bitrate=N/A speed=15.1x    frame= 4183 fps=369 q=-0.0 size=N/A time=00:02:54.46 bitrate=N/A speed=15.4x    frame= 4412 fps=372 q=-0.0 size=N/A time=00:03:04.01 bitrate=N/A speed=15.5x    frame= 4678 fps=378 q=-0.0 size=N/A time=00:03:15.11 bitrate=N/A speed=15.8x    frame= 4940 fps=383 q=-0.0 size=N/A time=00:03:26.03 bitrate=N/A speed=  16x    frame= 5184 fps=387 q=-0.0 size=N/A time=00:03:36.21 bitrate=N/A speed=16.1x    frame= 5394 fps=387 q=-0.0 size=N/A time=00:03:44.97 bitrate=N/A speed=16.2x    frame= 5638 fps=391 q=-0.0 size=N/A time=00:03:55.15 bitrate=N/A speed=16.3x    frame= 5838 fps=390 q=-0.0 size=N/A time=00:04:03.49 bitrate=N/A speed=16.3x    frame= 6057 fps=391 q=-0.0 size=N/A time=00:04:12.62 bitrate=N/A speed=16.3x    frame= 6286 fps=393 q=-0.0 size=N/A time=00:04:22.17 bitrate=N/A speed=16.4x    frame= 6513 fps=394 q=-0.0 size=N/A time=00:04:31.64 bitrate=N/A speed=16.4x    frame= 6778 fps=398 q=-0.0 size=N/A time=00:04:42.69 bitrate=N/A speed=16.6x    frame= 7014 fps=400 q=-0.0 size=N/A time=00:04:52.54 bitrate=N/A speed=16.7x    frame= 7243 fps=401 q=-0.0 size=N/A time=00:05:02.09 bitrate=N/A speed=16.7x    frame= 7528 fps=405 q=-0.0 size=N/A time=00:05:13.98 bitrate=N/A speed=16.9x    frame= 7791 fps=408 q=-0.0 size=N/A time=00:05:24.94 bitrate=N/A speed=  17x    frame= 8026 fps=409 q=-0.0 size=N/A time=00:05:34.75 bitrate=N/A speed=17.1x    frame= 8301 fps=413 q=-0.0 size=N/A time=00:05:46.22 bitrate=N/A speed=17.2x    frame= 8457 fps=410 q=-0.0 size=N/A time=00:05:52.72 bitrate=N/A speed=17.1x    frame= 8647 fps=409 q=-0.0 size=N/A time=00:06:00.65 bitrate=N/A speed=  17x    frame= 8828 fps=407 q=-0.0 size=N/A time=00:06:08.20 bitrate=N/A speed=  17x    frame= 9051 fps=408 q=-0.0 size=N/A time=00:06:17.50 bitrate=N/A speed=  17x    frame= 9270 fps=408 q=-0.0 size=N/A time=00:06:26.63 bitrate=N/A speed=  17x    frame= 9506 fps=409 q=-0.0 size=N/A time=00:06:36.47 bitrate=N/A speed=17.1x    frame= 9705 fps=409 q=-0.0 size=N/A time=00:06:44.77 bitrate=N/A speed=17.1x    frame= 9909 fps=409 q=-0.0 size=N/A time=00:06:53.28 bitrate=N/A speed=  17x    frame=10137 fps=409 q=-0.0 size=N/A time=00:07:02.79 bitrate=N/A speed=17.1x    frame=10406 fps=412 q=-0.0 size=N/A time=00:07:14.01 bitrate=N/A speed=17.2x    frame=10671 fps=414 q=-0.0 size=N/A time=00:07:25.06 bitrate=N/A speed=17.2x    frame=10926 fps=415 q=-0.0 size=N/A time=00:07:35.70 bitrate=N/A speed=17.3x    frame=11183 fps=417 q=-0.0 size=N/A time=00:07:46.42 bitrate=N/A speed=17.4x    frame=11406 fps=417 q=-0.0 size=N/A time=00:07:55.72 bitrate=N/A speed=17.4x    frame=11660 fps=419 q=-0.0 size=N/A time=00:08:06.31 bitrate=N/A speed=17.5x    frame=11919 fps=420 q=-0.0 size=N/A time=00:08:17.12 bitrate=N/A speed=17.5x    frame=12171 fps=421 q=-0.0 size=N/A time=00:08:27.67 bitrate=N/A speed=17.6x    frame=12455 fps=423 q=-0.0 size=N/A time=00:08:39.47 bitrate=N/A speed=17.7x    frame=12702 fps=425 q=-0.0 size=N/A time=00:08:49.77 bitrate=N/A speed=17.7x    frame=12949 fps=425 q=-0.0 size=N/A time=00:09:00.08 bitrate=N/A speed=17.7x    frame=13172 fps=426 q=-0.0 size=N/A time=00:09:09.38 bitrate=N/A speed=17.8x    frame=13423 fps=427 q=-0.0 size=N/A time=00:09:19.85 bitrate=N/A speed=17.8x    frame=13667 fps=427 q=-0.0 size=N/A time=00:09:30.02 bitrate=N/A speed=17.8x    frame=13881 fps=427 q=-0.0 size=N/A time=00:09:38.95 bitrate=N/A speed=17.8x    frame=14155 fps=429 q=-0.0 size=N/A time=00:09:50.38 bitrate=N/A speed=17.9x    frame=14411 fps=430 q=-0.0 size=N/A time=00:10:01.05 bitrate=N/A speed=17.9x    frame=14590 fps=428 q=-0.0 size=N/A time=00:10:08.52 bitrate=N/A speed=17.9x    frame=14706 fps=425 q=-0.0 size=N/A time=00:10:13.36 bitrate=N/A speed=17.7x    frame=14878 fps=424 q=-0.0 size=N/A time=00:10:20.53 bitrate=N/A speed=17.7x    frame=15126 fps=425 q=-0.0 size=N/A time=00:10:30.88 bitrate=N/A speed=17.7x    frame=15392 fps=426 q=-0.0 size=N/A time=00:10:41.97 bitrate=N/A speed=17.8x    frame=15654 fps=427 q=-0.0 size=N/A time=00:10:52.90 bitrate=N/A speed=17.8x    frame=15912 fps=428 q=-0.0 size=N/A time=00:11:03.66 bitrate=N/A speed=17.9x    frame=16078 fps=427 q=-0.0 size=N/A time=00:11:10.58 bitrate=N/A speed=17.8x    frame=16294 fps=427 q=-0.0 size=N/A time=00:11:19.59 bitrate=N/A speed=17.8x    frame=16533 fps=427 q=-0.0 size=N/A time=00:11:29.56 bitrate=N/A speed=17.8x    frame=16772 fps=428 q=-0.0 size=N/A time=00:11:39.53 bitrate=N/A speed=17.8x    frame=16976 fps=427 q=-0.0 size=N/A time=00:11:48.04 bitrate=N/A speed=17.8x    frame=17185 fps=427 q=-0.0 size=N/A time=00:11:56.75 bitrate=N/A speed=17.8x    frame=17385 fps=427 q=-0.0 size=N/A time=00:12:05.09 bitrate=N/A speed=17.8x    frame=17610 fps=427 q=-0.0 size=N/A time=00:12:14.48 bitrate=N/A speed=17.8x    frame=17798 fps=426 q=-0.0 size=N/A time=00:12:22.32 bitrate=N/A speed=17.8x    frame=18022 fps=426 q=-0.0 size=N/A time=00:12:31.66 bitrate=N/A speed=17.8x    frame=18245 fps=426 q=-0.0 size=N/A time=00:12:40.96 bitrate=N/A speed=17.8x    frame=18471 fps=426 q=-0.0 size=N/A time=00:12:50.39 bitrate=N/A speed=17.8x    frame=18687 fps=426 q=-0.0 size=N/A time=00:12:59.40 bitrate=N/A speed=17.8x    frame=18910 fps=426 q=-0.0 size=N/A time=00:13:08.70 bitrate=N/A speed=17.8x    frame=19125 fps=426 q=-0.0 size=N/A time=00:13:17.67 bitrate=N/A speed=17.8x    frame=19332 fps=426 q=-0.0 size=N/A time=00:13:26.30 bitrate=N/A speed=17.8x    frame=19579 fps=427 q=-0.0 size=N/A time=00:13:36.60 bitrate=N/A speed=17.8x    frame=19840 fps=427 q=-0.0 size=N/A time=00:13:47.49 bitrate=N/A speed=17.8x    frame=20112 fps=428 q=-0.0 size=N/A time=00:13:58.83 bitrate=N/A speed=17.9x    frame=20342 fps=429 q=-0.0 size=N/A time=00:14:08.43 bitrate=N/A speed=17.9x    frame=20579 fps=429 q=-0.0 size=N/A time=00:14:18.31 bitrate=N/A speed=17.9x    frame=20797 fps=429 q=-0.0 size=N/A time=00:14:27.40 bitrate=N/A speed=17.9x    frame=21038 fps=429 q=-0.0 size=N/A time=00:14:37.45 bitrate=N/A speed=17.9x    frame=21281 fps=430 q=-0.0 size=N/A time=00:14:47.59 bitrate=N/A speed=17.9x    frame=21545 fps=431 q=-0.0 size=N/A time=00:14:58.60 bitrate=N/A speed=  18x    frame=21809 fps=431 q=-0.0 size=N/A time=00:15:09.61 bitrate=N/A speed=  18x    frame=22080 fps=432 q=-0.0 size=N/A time=00:15:20.92 bitrate=N/A speed=  18x    frame=22327 fps=433 q=-0.0 size=N/A time=00:15:31.22 bitrate=N/A speed=18.1x    frame=22551 fps=433 q=-0.0 size=N/A time=00:15:40.56 bitrate=N/A speed=18.1x    frame=22770 fps=433 q=-0.0 size=N/A time=00:15:49.69 bitrate=N/A speed=18.1x    frame=23035 fps=434 q=-0.0 size=N/A time=00:16:00.75 bitrate=N/A speed=18.1x    frame=23278 fps=434 q=-0.0 size=N/A time=00:16:10.88 bitrate=N/A speed=18.1x    frame=23547 fps=435 q=-0.0 size=N/A time=00:16:22.10 bitrate=N/A speed=18.1x    frame=23794 fps=435 q=-0.0 size=N/A time=00:16:32.40 bitrate=N/A speed=18.2x    frame=24023 fps=435 q=-0.0 size=N/A time=00:16:41.95 bitrate=N/A speed=18.2x    frame=24276 fps=436 q=-0.0 size=N/A time=00:16:52.51 bitrate=N/A speed=18.2x    frame=24514 fps=436 q=-0.0 size=N/A time=00:17:02.43 bitrate=N/A speed=18.2x    frame=24728 fps=436 q=-0.0 size=N/A time=00:17:11.36 bitrate=N/A speed=18.2x    frame=25000 fps=437 q=-0.0 size=N/A time=00:17:22.70 bitrate=N/A speed=18.2x    frame=25273 fps=437 q=-0.0 size=N/A time=00:17:34.09 bitrate=N/A speed=18.2x    frame=25501 fps=438 q=-0.0 size=N/A time=00:17:43.60 bitrate=N/A speed=18.3x    frame=25770 fps=438 q=-0.0 size=N/A time=00:17:54.82 bitrate=N/A speed=18.3x    frame=26028 fps=439 q=-0.0 size=N/A time=00:18:05.58 bitrate=N/A speed=18.3x    frame=26253 fps=439 q=-0.0 size=N/A time=00:18:14.96 bitrate=N/A speed=18.3x    frame=26497 fps=439 q=-0.0 size=N/A time=00:18:25.14 bitrate=N/A speed=18.3x    frame=26744 fps=439 q=-0.0 size=N/A time=00:18:35.44 bitrate=N/A speed=18.3x    frame=26993 fps=440 q=-0.0 size=N/A time=00:18:45.83 bitrate=N/A speed=18.3x    frame=27242 fps=440 q=-0.0 size=N/A time=00:18:56.21 bitrate=N/A speed=18.4x    frame=27471 fps=440 q=-0.0 size=N/A time=00:19:05.76 bitrate=N/A speed=18.4x    frame=27730 fps=441 q=-0.0 size=N/A time=00:19:16.57 bitrate=N/A speed=18.4x    frame=27976 fps=441 q=-0.0 size=N/A time=00:19:26.83 bitrate=N/A speed=18.4x    frame=28237 fps=441 q=-0.0 size=N/A time=00:19:37.71 bitrate=N/A speed=18.4x    frame=28487 fps=442 q=-0.0 size=N/A time=00:19:48.14 bitrate=N/A speed=18.4x    frame=28773 fps=443 q=-0.0 size=N/A time=00:20:00.07 bitrate=N/A speed=18.5x    frame=29026 fps=443 q=-0.0 size=N/A time=00:20:10.62 bitrate=N/A speed=18.5x    frame=29233 fps=443 q=-0.0 size=N/A time=00:20:19.25 bitrate=N/A speed=18.5x    frame=29511 fps=444 q=-0.0 size=N/A time=00:20:30.85 bitrate=N/A speed=18.5x    frame=29777 fps=444 q=-0.0 size=N/A time=00:20:41.94 bitrate=N/A speed=18.5x    frame=30038 fps=445 q=-0.0 size=N/A time=00:20:52.83 bitrate=N/A speed=18.5x    frame=30300 fps=445 q=-0.0 size=N/A time=00:21:03.76 bitrate=N/A speed=18.6x    frame=30556 fps=445 q=-0.0 size=N/A time=00:21:14.43 bitrate=N/A speed=18.6x    frame=30775 fps=445 q=-0.0 size=N/A time=00:21:23.57 bitrate=N/A speed=18.6x    frame=31013 fps=445 q=-0.0 size=N/A time=00:21:33.50 bitrate=N/A speed=18.6x    frame=31289 fps=446 q=-0.0 size=N/A time=00:21:45.01 bitrate=N/A speed=18.6x    frame=31536 fps=446 q=-0.0 size=N/A time=00:21:55.31 bitrate=N/A speed=18.6x    frame=31787 fps=447 q=-0.0 size=N/A time=00:22:05.78 bitrate=N/A speed=18.6x    frame=32064 fps=447 q=-0.0 size=N/A time=00:22:17.33 bitrate=N/A speed=18.7x    frame=32298 fps=447 q=-0.0 size=N/A time=00:22:27.09 bitrate=N/A speed=18.7x    frame=32487 fps=447 q=-0.0 size=N/A time=00:22:34.97 bitrate=N/A speed=18.6x    frame=32670 fps=446 q=-0.0 size=N/A time=00:22:42.61 bitrate=N/A speed=18.6x    frame=32883 fps=446 q=-0.0 size=N/A time=00:22:51.49 bitrate=N/A speed=18.6x    frame=33090 fps=446 q=-0.0 size=N/A time=00:23:00.12 bitrate=N/A speed=18.6x    frame=33271 fps=445 q=-0.0 size=N/A time=00:23:07.67 bitrate=N/A speed=18.6x    frame=33438 fps=444 q=-0.0 size=N/A time=00:23:14.64 bitrate=N/A speed=18.5x    frame=33616 fps=443 q=-0.0 size=N/A time=00:23:22.06 bitrate=N/A speed=18.5x    frame=33798 fps=443 q=-0.0 size=N/A time=00:23:29.65 bitrate=N/A speed=18.5x    frame=33956 fps=442 q=-0.0 size=N/A time=00:23:36.24 bitrate=N/A speed=18.4x    frame=34113 fps=441 q=-0.0 size=N/A time=00:23:42.79 bitrate=N/A speed=18.4x    frame=34259 fps=440 q=-0.0 size=N/A time=00:23:48.88 bitrate=N/A speed=18.3x    frame=34396 fps=439 q=-0.0 size=N/A time=00:23:54.59 bitrate=N/A speed=18.3x    [Parsed_ssim_10 @ 00000151fd441a80] SSIM Y:0.992694 (21.363164) U:0.993460 (21.844135) V:0.993770 (22.055051) All:0.993001 (21.549589)
[out#0/null @ 00000151fcd106c0] video:14878KiB audio:270788KiB subtitle:0KiB other streams:0KiB global headers:0KiB muxing overhead: unknown
frame=34624 fps=439 q=-0.0 Lsize=N/A time=00:24:04.10 bitrate=N/A speed=18.3x    
